# xmcd
#
# Track frame offsets:
#	150
#	18497
#	34596
#	51395
#	68692
#	83642
#	102399
#	117475
#	136172
#	151444
#	170421
#	189886
#	206714
#	227129
#	243089
#
# Disc length: 3478 seconds
#
# Revision: 1
# Processed by: cddbd v1.5.2PL0 Copyright (c) Steve Scherf et al.
# Submitted via: audiograbber 1.83.01
#
DISCID=c20d940f
DTITLE=Various Artist - CB60221
DYEAR=2001
DGENRE=Country
TTITLE0=Phil Vasser - Six pack Summer
TTITLE1=John Anderson - It Ain't Easy Being Me
TTITLE2=Martina McBride - When God Fearing Women Get The Blues
TTITLE3=Travis Tritt - Love Of A Woman
TTITLE4=Mark McGuinn - That's A Plan
TTITLE5=Patty Loveless - Strong Heart
TTITLE6=Brad Paisley - Wrapped Around
TTITLE7=Aaron Tippin - Always Was
TTITLE8=Kinleys, The - Your Still Here
TTITLE9=Marshall Dyllon - She Ain't Gonna' Cry
TTITLE10=Bily Ray Cirus - Southern Rain
TTITLE11=Lee Ann Womack - Stranger Than I Am
TTITLE12=Brooks and Dunn - Only In America
TTITLE13=Cley McCabe - Who I Am To You
TTITLE14=Trace Adkins - I'm Tryin'
EXTD=
EXTT0=
EXTT1=
EXTT2=
EXTT3=
EXTT4=
EXTT5=
EXTT6=
EXTT7=
EXTT8=
EXTT9=
EXTT10=
EXTT11=
EXTT12=
EXTT13=
EXTT14=
PLAYORDER=
